<svg xmlns="http://www.w3.org/2000/svg" width="512" height="512" viewBox="0 0 512 512">
  <defs>
    <linearGradient id="bg" x1="0%" y1="0%" x2="100%" y2="100%">
      <stop offset="0%" style="stop-color:#f5f0e8"/>
      <stop offset="100%" style="stop-color:#ece5d8"/>
    </linearGradient>
    <linearGradient id="accent" x1="0%" y1="0%" x2="100%" y2="100%">
      <stop offset="0%" style="stop-color:#d48a6a"/>
      <stop offset="100%" style="stop-color:#b8654a"/>
    </linearGradient>
    <filter id="shadow">
      <feDropShadow dx="0" dy="4" stdDeviation="8" flood-color="#806040" flood-opacity="0.15"/>
    </filter>
  </defs>
  <rect width="512" height="512" rx="108" fill="url(#bg)"/>
  <rect x="88" y="88" width="336" height="336" rx="72" fill="url(#accent)" filter="url(#shadow)"/>
  <path d="M180,180 L180,332 L208,332 L208,260 L256,260 Q280,260 296,248 Q312,236 312,208 Q312,180 296,168 Q280,156 256,156 L180,156 Z M208,184 L248,184 Q264,184 274,194 Q284,204 284,216 Q284,228 274,238 Q264,248 248,248 L208,248 Z" fill="white" fill-rule="evenodd"/>
  <circle cx="340" cy="340" r="48" fill="none" stroke="white" stroke-width="12"/>
  <line x1="374" y1="374" x2="408" y2="408" stroke="white" stroke-width="12" stroke-linecap="round"/>
</svg>
